# xmcd
#
# Track frame offsets: 
#        182
#        13240
#        23637
#        37332
#        51355
#        63745
#        76837
#        92077
#        104675
#        118285
#        132207
#        142337
#        156200
#        169455
#        182107
#        195727
#        208575
#        221370
#        234810
#
# Disc length: 3304 seconds
#
# Revision: 4
# Processed by: cddbd v1.5.2PL0 Copyright (c) Steve Scherf et al.
# Submitted via: ExactAudioCopyFreeDBPlugin 1.0
#
DISCID=200ce613
DTITLE=John Lee Hooker - Alternative Boogie: Early Studio Recordings, 
DTITLE=1948-1952 [Disc 3]
DYEAR=1995
DGENRE=Blues
TTITLE0=Lord What More Can I Do?
TTITLE1=Baby Please Don't Go
TTITLE2=I'm Going Away
TTITLE3=Hummin' The Blues
TTITLE4=Johnny Lee And The Thing
TTITLE5=Slow Down Your Chatter Baby
TTITLE6=I Did Everything
TTITLE7=Someone To Love - Take 1
TTITLE8=Someone To Love - Take 2
TTITLE9=There's A Day Comin' Baby
TTITLE10=I Was Beggin' My Baby
TTITLE11=Nobody To Talk To Me
TTITLE12=I'm Gonna Whip Ya Baby
TTITLE13=It's A Crime And A Shame
TTITLE14=I Met The Grindin' Man
TTITLE15=Louisiana Blues For You
TTITLE16=Long, Long Way From Home
TTITLE17=Sometime
TTITLE18=T.B.'s Killin' Me
EXTD=
EXTT0=
EXTT1=
EXTT2=
EXTT3=
EXTT4=
EXTT5=
EXTT6=
EXTT7=
EXTT8=
EXTT9=
EXTT10=
EXTT11=
EXTT12=
EXTT13=
EXTT14=
EXTT15=
EXTT16=
EXTT17=
EXTT18=
PLAYORDER=
